<svg width="157" height="157" viewBox="0 0 157 157" fill="none" xmlns="http://www.w3.org/2000/svg">
<g clip-path="url(#clip0_3005_545)">
<path d="M78.5 138.683V154.383L71.3566 152.945C58.6987 150.426 45.8236 149.155 32.9179 149.15H2.6167V133.45H32.9179C45.8236 133.455 58.6987 134.726 71.3566 137.245L78.5 138.683Z" fill="#969693"/>
<path d="M154.383 133.45V149.15H124.082C111.176 149.155 98.3013 150.426 85.6434 152.945L78.5 154.383V138.683L85.6434 137.245C98.3013 134.726 111.176 133.455 124.082 133.45H154.383Z" fill="#878784"/>
<path d="M124.082 133.45C111.176 133.455 98.3013 134.726 85.6434 137.245L78.5 138.683C91.6549 120.604 112.662 109.906 135.02 109.9H143.917V49.7167H154.383V133.45H124.082Z" fill="#A1A19D"/>
<path d="M21.9798 109.9C44.3377 109.906 65.3451 120.604 78.5 138.683L71.3566 137.245C58.6987 134.726 45.8236 133.455 32.9179 133.45H2.6167V49.7167H13.0834V109.9H21.9798Z" fill="#ABABA7"/>
<path d="M26.1668 86.3499C55.0728 86.341 78.5091 109.777 78.5001 138.683C65.3453 120.604 44.3378 109.906 21.9799 109.9H13.0835V26.1666H21.9799C22.5037 26.1666 23.0263 26.1666 23.5502 26.1922V86.3499H26.1668Z" fill="#BFBFBB"/>
<path d="M135.02 109.9C112.663 109.906 91.6551 120.604 78.5002 138.683C78.4951 136.901 78.582 135.119 78.7621 133.345C81.5078 106.65 103.996 86.3525 130.834 86.3499H133.45V26.1922C133.974 26.1666 134.497 26.1666 135.02 26.1666H143.917V109.9H135.02Z" fill="#B0B0AC"/>
<path d="M78.7617 133.345C78.5815 135.119 78.4947 136.901 78.4998 138.683C78.5087 109.777 55.0724 86.341 26.1665 86.35H23.5498V2.6167H26.1665C55.0724 2.60776 78.5087 26.044 78.4998 54.95V133.345H78.7617Z" fill="#D8D8D3"/>
<path d="M130.833 86.35C103.996 86.3525 81.5076 106.65 78.7619 133.345H78.5V54.95C78.4911 26.044 101.927 2.60776 130.833 2.6167H133.45V86.35H130.833Z" fill="#C9C9C5"/>
<path d="M72.5051 92.5518C62.7782 82.7942 50.2289 76.3407 36.6332 74.1035V60.1833H31.3999V76.3727C31.3999 77.6925 32.3824 78.8054 33.692 78.9689C46.9849 80.6695 59.3348 86.7461 68.7947 96.2379L72.5051 92.5518Z" fill="black"/>
<path d="M31.3999 49.7167H36.6332V54.95H31.3999V49.7167Z" fill="black"/>
<path d="M120.367 26.1666H125.6V31.4H120.367V26.1666Z" fill="black"/>
<path d="M120.367 17.1182V20.9333H125.6V13.8218C125.6 13.0411 125.251 12.3014 124.651 11.8043C124.049 11.3073 123.258 11.1055 122.492 11.2511C115.367 12.6208 108.686 15.7089 103.029 20.2497L106.305 24.3344C110.456 21.0036 115.239 18.5479 120.367 17.1182Z" fill="black"/>
<path d="M157 149.15V49.7166C157 48.2716 155.828 47.1 154.383 47.1H146.533V26.1667C146.533 24.7216 145.362 23.55 143.917 23.55H136.067V2.61667C136.067 1.17162 134.895 0 133.45 0H130.833C106.937 0.0344971 85.7942 15.4841 78.5 38.2393C71.207 15.4841 50.0629 0.0344971 26.1667 0H23.55C22.1049 0 20.9333 1.17162 20.9333 2.61667V23.55H13.0833C11.6383 23.55 10.4667 24.7216 10.4667 26.1667V47.1H2.61667C1.17162 47.1 0 48.2716 0 49.7166V149.15C0 150.595 1.17162 151.767 2.61667 151.767H32.9204C45.66 151.769 58.369 153.028 70.8621 155.524L77.9953 156.948V156.913C78.1601 156.958 78.33 156.987 78.5 157C78.6763 157.001 78.8513 156.983 79.0238 156.948L86.1558 155.524C98.6437 153.029 111.346 151.77 124.08 151.767H154.383C155.828 151.767 157 150.595 157 149.15ZM133.45 88.9666C134.895 88.9666 136.067 87.795 136.067 86.35V28.7833H141.3V107.283H135.02C114.843 107.316 95.5862 115.727 81.8487 130.506C85.8555 106.563 106.558 89.0075 130.833 88.9666H133.45ZM130.833 5.23333V83.7333C109.517 83.7665 90.1408 96.1203 81.1166 115.431V54.95C81.1473 27.5044 103.388 5.26399 130.833 5.23333ZM26.1667 5.23333C53.6123 5.26399 75.8526 27.5044 75.8833 54.95V115.431C66.8591 96.1203 47.4833 83.7665 26.1667 83.7333V5.23333ZM15.7 28.7833H20.9333V86.35C20.9333 87.795 22.1049 88.9666 23.55 88.9666H26.1667C50.4424 89.0075 71.1444 106.563 75.1512 130.506C61.4137 115.727 42.1567 107.316 21.9797 107.283H15.7V28.7833ZM5.23333 52.3333H10.4667V109.9C10.4667 111.345 11.6383 112.517 13.0833 112.517H21.9797C40.9889 112.552 59.1024 120.602 71.8663 134.688C59.0423 132.128 45.9973 130.836 32.9204 130.833H5.23333V52.3333ZM32.9204 146.533H5.23333V136.067H32.9204C45.66 136.069 58.369 137.328 70.8621 139.824L75.8833 140.828V151.19L71.8829 150.406C59.0538 147.838 46.0037 146.54 32.9204 146.533ZM151.767 146.533H124.08C110.997 146.536 97.9461 147.829 85.117 150.393L81.1166 151.19V140.828L86.1455 139.824C98.636 137.328 111.342 136.069 124.08 136.067H151.767V146.533ZM151.767 130.833H124.08C111.004 130.837 97.9614 132.128 85.1387 134.688C97.9014 120.603 116.012 112.554 135.02 112.517H143.917C145.362 112.517 146.533 111.345 146.533 109.9V52.3333H151.767V130.833Z" fill="black"/>
</g>
<defs>
<clipPath id="clip0_3005_545">
<rect width="157" height="157" fill="white"/>
</clipPath>
</defs>
</svg>
